<svg width="22" height="22" viewBox="0 0 22 22" fill="none" xmlns="http://www.w3.org/2000/svg">
<path fill-rule="evenodd" clip-rule="evenodd" d="M3.5 9.9991C3.5 6.41073 6.40937 3.5 9.9991 3.5C13.5895 3.5 16.5 6.40959 16.5 9.9991C16.5 13.5891 13.5891 16.5 9.9991 16.5C6.41095 16.5 3.5 13.5909 3.5 9.9991ZM9.9991 0.5C4.75208 0.5 0.5 4.75431 0.5 9.9991C0.5 15.2477 4.75409 19.5 9.9991 19.5C12.0812 19.5 14.007 18.8301 15.5727 17.694L18.9393 21.0607C19.5251 21.6464 20.4749 21.6464 21.0607 21.0607C21.6464 20.4749 21.6464 19.5251 21.0607 18.9393L17.694 15.5727C18.8301 14.007 19.5 12.0812 19.5 9.9991C19.5 4.75186 15.2455 0.5 9.9991 0.5Z" fill="#313132"/>
</svg>
